<svg viewBox="0 0 100 100" xmlns="http://www.w3.org/2000/svg">
  <path d="M6.6 12.5l49.7-3.7c6.1-.5 7.7-.2 11.5 2.6l15.9 11.2c2.6 1.9 3.5 2.4 3.5 4.5v56.1c0 3.6-1.3 5.7-5.9 6l-52 3.1c-3.4.2-5-.4-6.8-2.6L10 73.6c-2.3-3-3.3-5.2-3.3-8V17.8c0-3.5 1.3-6.3 5.9-5.3z" fill="#fff"/>
  <path d="M6.6 12.5l49.7-3.7c6.1-.5 7.7-.2 11.5 2.6l15.9 11.2c2.6 1.9 3.5 2.4 3.5 4.5v56.1c0 3.6-1.3 5.7-5.9 6l-52 3.1c-3.4.2-5-.4-6.8-2.6L10 73.6c-2.3-3-3.3-5.2-3.3-8V17.8c0-3.5 1.3-6.3 5.9-5.3z" fill="#000" fill-opacity="0"/>
  <path d="M6.6 12.5l49.7-3.7c6.1-.5 7.7-.2 11.5 2.6l15.9 11.2c2.6 1.9 3.5 2.4 3.5 4.5v56.1c0 3.6-1.3 5.7-5.9 6l-52 3.1c-3.4.2-5-.4-6.8-2.6L10 73.6c-2.3-3-3.3-5.2-3.3-8V17.8c0-3.5 1.3-6.3 5.9-5.3z" stroke="#000" stroke-width="3" fill="none"/>
  <path d="M54.8 8.8v60.7c0 3-.2 4.2-1.7 4.4L24.3 76.5V20.6c0-2.2.4-3.3 2-4.5l8-5.3c.9-.6 1.5-.7 2.7-.8l17.8-1.2z" fill="#000"/>
  <path d="M39.1 35.7v30.5" stroke="#fff" stroke-width="6" stroke-linecap="round"/>
</svg>